<svg xmlns="http://www.w3.org/2000/svg" version="1.1" width="80pt" height="40pt">
  <text x="9" y="15" fill="red" style="font-family: courier; font-size: 15px">barbara</text>
  <text x="0" y="45" style="font-family: courier; font-size: 15px"><tspan fill="red">abra</tspan>c<tspan fill="red">a</tspan>d<tspan fill="red">abra</tspan></text>
  <line x1="13" y1="18" x2="13" y2="35" stroke="red" />
  <line x1="13" y1="18" x2="74" y2="35" stroke="red" />
  <line x1="23" y1="18" x2="7" y2="35" stroke="red" />
  <line x1="23" y1="18" x2="31" y2="35" stroke="red" />
  <line x1="23" y1="18" x2="50" y2="35" stroke="red" />
  <line x1="23" y1="18" x2="68" y2="35" stroke="red" />
  <line x1="23" y1="18" x2="93" y2="35" stroke="red" />
  <line x1="32" y1="18" x2="24" y2="35" stroke="red" />
  <line x1="32" y1="18" x2="84" y2="35" stroke="red" />
  <line x1="41" y1="18" x2="13" y2="35" stroke="red" />
  <line x1="41" y1="18" x2="74" y2="35" stroke="red" />
  <line x1="50" y1="18" x2="7" y2="35" stroke="red" />
  <line x1="50" y1="18" x2="31" y2="35" stroke="red" />
  <line x1="50" y1="18" x2="50" y2="35" stroke="red" />
  <line x1="50" y1="18" x2="68" y2="35" stroke="red" />
  <line x1="50" y1="18" x2="93" y2="35" stroke="red" />
  <line x1="59" y1="18" x2="24" y2="35" stroke="red" />
  <line x1="59" y1="18" x2="84" y2="35" stroke="red" />
  <line x1="68" y1="18" x2="7" y2="35" stroke="red" />
  <line x1="68" y1="18" x2="31" y2="35" stroke="red" />
  <line x1="68" y1="18" x2="50" y2="35" stroke="red" />
  <line x1="68" y1="18" x2="68" y2="35" stroke="red" />
  <line x1="68" y1="18" x2="93" y2="35" stroke="red" />
</svg>
